<svg xmlns="http://www.w3.org/2000/svg" viewBox="0 0 512 512" id="paint-roller">
  <rect width="222.284" height="32.994" x="84.059" y="300.321" fill="#7986bf" transform="rotate(-45 195.2 316.817)"></rect>
  <rect width="222.284" height="16.497" x="78.226" y="302.737" fill="#6a75ad" transform="rotate(-45 189.366 310.984)"></rect>
  <path fill="#7986bf" fill-rule="evenodd" d="M126.112,107.886L404.132,385.906c5.131,5.132,13.528,5.132,18.66,0l74.384-74.384c5.131-5.132,5.131-13.528,0-18.66l-40.092-40.092-16.27,16.27,33.152,33.152-60.503,60.504L149.322,98.556l60.504-60.504,33.152,33.152,16.27-16.27L219.156,14.843c-5.132-5.132-13.529-5.132-18.66,0L126.112,89.226c-5.131,5.131-5.131,13.528,0,18.66Z"></path>
  <path fill="#f9ac00" fill-rule="evenodd" d="M462.024,290.083l16.102-16.102c3.188-3.188,3.188-8.403,0-11.591l-22.637-22.638-27.693,27.693,22.638,22.637c3.188,3.188,8.403,3.188,11.591,0Z"></path>
  <path fill="#fdc72e" fill-rule="evenodd" d="M470.075,282.032l8.051-8.051c3.188-3.188,3.188-8.403,0-11.591l-22.637-22.638-13.846,13.846,28.433,28.433Z"></path>
  <path fill="#f9ac00" fill-rule="evenodd" d="M221.936,49.995l16.102-16.102c3.188-3.188,8.403-3.188,11.591,0l22.637,22.638-27.692,27.692-22.637-22.637c-3.188-3.188-3.188-8.403,0-11.591Z"></path>
  <path fill="#fdc72e" fill-rule="evenodd" d="M229.987,41.944l8.051-8.051c3.188-3.188,8.403-3.188,11.591,0l22.637,22.638-13.846,13.846-28.433-28.433Z"></path>
  <path fill="#3bd97d" fill-rule="evenodd" d="M217.228,98.79l196.001,196.001c4.806,4.806,12.67,4.806,17.476,0l52.13-52.13c4.806-4.806,4.806-12.67,0-17.476L286.833,29.184c-4.806-4.806-12.67-4.806-17.476,0l-52.13,52.13c-4.806,4.806-4.806,12.67,0,17.476Z"></path>
  <path fill="#4fe88e" fill-rule="evenodd" d="M456.77,268.726l26.065-26.065c4.806-4.806,4.806-12.67,0-17.476L286.833,29.184c-4.806-4.806-12.67-4.806-17.476,0l-26.065,26.065,213.477,213.477Z"></path>
  <path fill="#fb545c" fill-rule="evenodd" d="M114.881,377.631l19.507,19.507c3.794,3.794,3.794,10.002,0,13.796l-87.215,87.215c-3.794,3.794-10.002,3.794-13.796,0l-19.507-19.507c-3.794-3.794-3.794-10.002,0-13.796l87.215-87.215c3.794-3.794,10.002-3.794,13.796,0Z"></path>
  <path fill="#f0414a" fill-rule="evenodd" d="M114.881,377.631l9.753,9.753L23.624,488.395l-9.753-9.753c-3.794-3.794-3.794-10.002,0-13.796l87.215-87.215c3.794-3.794,10.002-3.794,13.796,0Z"></path>
  <path fill="#fdc72e" fill-rule="evenodd" d="M110.94,373.689l27.39,27.39c3.778,3.778,3.457,10.281-.713,14.45-4.17,4.17-10.673,4.492-14.451,.714l-27.39-27.39c-3.778-3.778-3.457-10.281,.713-14.451,4.17-4.17,10.673-4.491,14.451-.713Z"></path>
  <path fill="#f9ac00" fill-rule="evenodd" d="M110.94,373.689l13.695,13.695-15.164,15.164-13.695-13.695c-3.778-3.778-3.457-10.281,.713-14.451,4.17-4.17,10.673-4.491,14.451-.713Z"></path>
  <path fill="#fdc72e" d="M259.452,212.777h27.61c4,0,7.248,3.248,7.248,7.248v37.473c0,4-3.247,7.247-7.247,7.247h-27.611c-4,0-7.248-3.248-7.248-7.248v-37.473c0-4,3.248-7.248,7.248-7.248Z" transform="rotate(-45 273.255 238.761)"></path>
  <path fill="#f9ac00" fill-rule="evenodd" d="M258.371,253.648l-13.249-13.249c-2.819-2.819-2.819-7.431,0-10.25l19.524-19.524c2.815-2.815,7.419-2.819,10.239-.011l13.26,13.26-29.773,29.773Z"></path>
  <path fill="#1e2745" fill-rule="evenodd" d="M493.619,308.004l-74.379,74.379c-1.543,1.538-3.6,2.381-5.8,2.381s-4.253-.843-5.791-2.381l-117.1-117.1,9.2-9.2,110.157,110.162c.971,.981,2.252,1.457,3.533,1.457s2.557-.476,3.538-1.457l60.503-60.502c.938-.938,1.472-2.21,1.472-3.538s-.534-2.6-1.472-3.529l-8.491-8.5,9.2-9.191,15.429,15.429c1.538,1.529,2.381,3.591,2.381,5.791s-.843,4.257-2.381,5.8h0Zm-216.899-43.983c.352,0,1.029-.081,1.591-.647l19.529-19.52c.857-.871,.857-2.324,0-3.181l-26.501-26.501c-.567-.567-1.238-.648-1.591-.648-.348,0-1.024,.081-1.591,.648l-19.524,19.519c-.562,.572-.643,1.243-.643,1.591,0,.352,.081,1.029,.643,1.591l26.501,26.501c.567,.567,1.238,.647,1.586,.647h0Zm-140.782,143.901c-.072,1.49-.743,2.938-1.876,4.081-1.138,1.138-2.591,1.81-4.086,1.881-.762,.038-2.195-.062-3.295-1.162l-27.392-27.401c-1.1-1.1-1.2-2.529-1.162-3.291,.071-1.495,.738-2.948,1.876-4.076,1.238-1.243,2.857-1.89,4.353-1.89,1.157,0,2.238,.386,3.029,1.172l27.387,27.387c1.105,1.1,1.205,2.538,1.167,3.3h0Zm-92.323,86.699l75.417-75.408-26.234-26.229L17.386,468.391c-1.857,1.852-1.857,4.872,0,6.72l19.506,19.51c.89,.89,2.086,1.381,3.362,1.381s2.472-.49,3.362-1.381h0Zm76.403-118.891l126.667-126.667,16.258,16.258-126.662,126.672-16.263-16.263h0Zm7.224-277.168c0-2.191,.848-4.248,2.386-5.791L204.007,18.392c3.2-3.2,8.396-3.2,11.591,0l15.434,15.429-9.2,9.2-8.491-8.491c-1.953-1.957-5.119-1.957-7.072,0l-60.507,60.503c-.933,.938-1.462,2.21-1.462,3.529,0,1.329,.528,2.6,1.462,3.543l110.167,110.157-9.2,9.2-117.105-117.1c-1.533-1.538-2.381-3.6-2.381-5.8h0Zm118.829-61.122c-1.224-1.229-3.295-1.229-4.519,0l-16.101,16.101c-.6,.6-.929,1.4-.929,2.262,0,.857,.329,1.657,.929,2.257l3.972,3.972,20.625-20.62-3.976-3.972h0Zm26.801-4.71l-52.131,52.131c-2.867,2.871-2.867,7.529,0,10.4l195.999,195.998c2.872,2.872,7.538,2.872,10.41,0l52.131-52.126c1.376-1.381,2.138-3.224,2.138-5.2s-.762-3.824-2.138-5.2L283.277,32.731c-1.381-1.376-3.229-2.138-5.205-2.138s-3.819,.762-5.2,2.138h0Zm32.039,200.87c4.115,4.119,4.667,10.462,1.686,15.191l106.842,106.843,53.44-53.431-5.691-5.691c-1.591,.648-3.29,.971-4.981,.971-3.381,0-6.758-1.281-9.329-3.853l-3.981-3.976-8.676,8.676c-3.381,3.391-7.834,5.081-12.272,5.081s-8.891-1.691-12.281-5.072L213.67,102.333c-6.767-6.762-6.767-17.781,0-24.544l8.686-8.686-3.976-3.972c-2.486-2.49-3.853-5.8-3.853-9.329,0-1.738,.333-3.419,.967-4.981l-5.686-5.691-53.435,53.431,106.842,106.852c1.938-1.224,4.181-1.89,6.534-1.89,3.276,0,6.353,1.271,8.662,3.576l26.501,26.501h0Zm169.659,32.33l-3.972-3.967-20.63,20.62,3.981,3.981c1.219,1.219,3.29,1.219,4.519,0l16.1-16.115c.6-.586,.929-1.395,.929-2.257s-.328-1.662-.929-2.262h0Zm26.12,23.411l-16.163-16.167c.629-1.562,.972-3.238,.972-4.981,0-3.534-1.372-6.838-3.862-9.329l-3.967-3.972,8.677-8.691c3.271-3.257,5.072-7.619,5.072-12.267s-1.8-9-5.072-12.272L290.349,25.664c-3.272-3.271-7.629-5.071-12.277-5.071s-9.005,1.8-12.272,5.071l-8.681,8.677-3.977-3.967c-3.862-3.871-9.543-4.829-14.31-2.89l-16.163-16.158c-7.091-7.101-18.639-7.101-25.729-.015L122.556,85.704c-3.424,3.429-5.314,7.991-5.314,12.858s1.891,9.443,5.314,12.872l117.319,117.319c-1.224,1.938-1.886,4.181-1.886,6.529,0,2.329,.653,4.562,1.853,6.481l-127.024,127.029c-5.81-4.238-14.301-3.5-19.886,2.081-2.895,2.9-4.6,6.691-4.795,10.672-.033,.648-.01,1.286,.038,1.919L10.314,461.324c-5.753,5.748-5.753,15.105,0,20.868l19.506,19.501c2.781,2.781,6.486,4.31,10.434,4.31s7.658-1.529,10.434-4.31l77.86-77.86c.381,.029,.762,.062,1.143,.062,.257,0,.519-.009,.776-.024,3.981-.2,7.767-1.9,10.662-4.8,2.9-2.891,4.6-6.677,4.795-10.658,.171-3.419-.79-6.61-2.7-9.219l127.019-127.034c1.924,1.2,4.148,1.862,6.481,1.862,2.352,0,4.595-.672,6.529-1.891l117.324,117.324c3.543,3.548,8.2,5.319,12.863,5.319s9.319-1.772,12.872-5.319l74.379-74.384c3.429-3.428,5.31-8,5.31-12.867s-1.881-9.443-5.31-12.862Z"></path>
</svg>